<svg width="94" height="29" viewBox="0 0 94 29" fill="none" xmlns="http://www.w3.org/2000/svg">
<path d="M37.34 21.78C37.972 21.78 38.504 21.708 38.936 21.564C39.376 21.412 39.732 21.208 40.004 20.952C40.284 20.696 40.484 20.396 40.604 20.052C40.732 19.7 40.796 19.324 40.796 18.924C40.796 18.108 40.516 17.468 39.956 17.004C39.404 16.532 38.528 16.296 37.328 16.296H33.86V21.78H37.34ZM33.86 8.916V14.316H36.668C37.868 14.316 38.764 14.084 39.356 13.62C39.948 13.156 40.244 12.488 40.244 11.616C40.244 10.664 39.964 9.976 39.404 9.552C38.852 9.128 37.984 8.916 36.8 8.916H33.86ZM36.8 6.72C37.904 6.72 38.848 6.828 39.632 7.044C40.416 7.252 41.06 7.552 41.564 7.944C42.068 8.336 42.436 8.816 42.668 9.384C42.908 9.944 43.028 10.576 43.028 11.28C43.028 11.688 42.964 12.084 42.836 12.468C42.716 12.844 42.524 13.2 42.26 13.536C42.004 13.864 41.68 14.16 41.288 14.424C40.896 14.688 40.432 14.908 39.896 15.084C42.344 15.604 43.568 16.904 43.568 18.984C43.568 19.72 43.428 20.396 43.148 21.012C42.876 21.62 42.476 22.148 41.948 22.596C41.428 23.036 40.784 23.38 40.016 23.628C39.248 23.876 38.372 24 37.388 24H31.052V6.72H36.8ZM48.7053 11.76V24H46.1253V11.76H48.7053ZM49.1373 8.064C49.1373 8.296 49.0893 8.516 48.9933 8.724C48.9053 8.932 48.7813 9.116 48.6213 9.276C48.4613 9.428 48.2733 9.552 48.0573 9.648C47.8493 9.736 47.6253 9.78 47.3853 9.78C47.1533 9.78 46.9333 9.736 46.7253 9.648C46.5253 9.552 46.3493 9.428 46.1973 9.276C46.0453 9.116 45.9213 8.932 45.8253 8.724C45.7373 8.516 45.6933 8.296 45.6933 8.064C45.6933 7.824 45.7373 7.6 45.8253 7.392C45.9213 7.184 46.0453 7.004 46.1973 6.852C46.3493 6.692 46.5253 6.568 46.7253 6.48C46.9333 6.384 47.1533 6.336 47.3853 6.336C47.6253 6.336 47.8493 6.384 48.0573 6.48C48.2733 6.568 48.4613 6.692 48.6213 6.852C48.7813 7.004 48.9053 7.184 48.9933 7.392C49.0893 7.6 49.1373 7.824 49.1373 8.064ZM54.575 6.24V24H51.995V6.24H54.575ZM60.3875 6.24V24H57.8075V6.24H60.3875ZM70.112 18.648C69.192 18.68 68.416 18.756 67.784 18.876C67.152 18.988 66.64 19.136 66.248 19.32C65.856 19.496 65.572 19.708 65.396 19.956C65.228 20.204 65.144 20.476 65.144 20.772C65.144 21.06 65.188 21.308 65.276 21.516C65.372 21.716 65.5 21.884 65.66 22.02C65.828 22.148 66.02 22.244 66.236 22.308C66.46 22.364 66.704 22.392 66.968 22.392C67.64 22.392 68.216 22.268 68.696 22.02C69.184 21.764 69.656 21.396 70.112 20.916V18.648ZM63.272 13.464C64.656 12.176 66.304 11.532 68.216 11.532C68.92 11.532 69.544 11.648 70.088 11.88C70.64 12.104 71.1 12.424 71.468 12.84C71.844 13.256 72.128 13.752 72.32 14.328C72.52 14.896 72.62 15.528 72.62 16.224V24H71.468C71.22 24 71.032 23.964 70.904 23.892C70.776 23.812 70.668 23.656 70.58 23.424L70.328 22.428C70.016 22.708 69.708 22.96 69.404 23.184C69.1 23.4 68.784 23.584 68.456 23.736C68.136 23.888 67.788 24 67.412 24.072C67.044 24.152 66.636 24.192 66.188 24.192C65.692 24.192 65.228 24.124 64.796 23.988C64.372 23.852 64.004 23.648 63.692 23.376C63.38 23.096 63.132 22.752 62.948 22.344C62.772 21.936 62.684 21.456 62.684 20.904C62.684 20.432 62.808 19.972 63.056 19.524C63.312 19.076 63.728 18.676 64.304 18.324C64.888 17.964 65.652 17.668 66.596 17.436C67.548 17.204 68.72 17.072 70.112 17.04V16.224C70.112 15.344 69.924 14.688 69.548 14.256C69.172 13.824 68.62 13.608 67.892 13.608C67.396 13.608 66.98 13.672 66.644 13.8C66.308 13.92 66.016 14.052 65.768 14.196C65.52 14.34 65.3 14.476 65.108 14.604C64.916 14.724 64.712 14.784 64.496 14.784C64.32 14.784 64.168 14.74 64.04 14.652C63.92 14.556 63.82 14.44 63.74 14.304L63.272 13.464ZM75.6423 24V11.76H77.2023C77.5543 11.76 77.7783 11.924 77.8743 12.252L78.0423 13.32C78.2663 13.064 78.4983 12.832 78.7383 12.624C78.9783 12.408 79.2343 12.224 79.5063 12.072C79.7863 11.912 80.0823 11.788 80.3943 11.7C80.7143 11.612 81.0583 11.568 81.4263 11.568C81.8183 11.568 82.1783 11.624 82.5063 11.736C82.8343 11.848 83.1223 12.008 83.3703 12.216C83.6263 12.424 83.8463 12.676 84.0303 12.972C84.2143 13.268 84.3663 13.6 84.4863 13.968C84.6703 13.544 84.9023 13.18 85.1823 12.876C85.4623 12.572 85.7743 12.324 86.1183 12.132C86.4623 11.94 86.8263 11.8 87.2103 11.712C87.6023 11.616 87.9983 11.568 88.3983 11.568C89.0543 11.568 89.6383 11.672 90.1503 11.88C90.6703 12.088 91.1063 12.392 91.4583 12.792C91.8183 13.184 92.0903 13.668 92.2743 14.244C92.4583 14.82 92.5503 15.476 92.5503 16.212V24H89.9703V16.212C89.9703 15.348 89.7823 14.7 89.4063 14.268C89.0383 13.828 88.4903 13.608 87.7623 13.608C87.4343 13.608 87.1263 13.664 86.8383 13.776C86.5503 13.888 86.2983 14.052 86.0823 14.268C85.8663 14.484 85.6943 14.756 85.5663 15.084C85.4463 15.404 85.3863 15.78 85.3863 16.212V24H82.8063V16.212C82.8063 15.316 82.6263 14.66 82.2663 14.244C81.9063 13.82 81.3783 13.608 80.6823 13.608C80.2023 13.608 79.7583 13.732 79.3503 13.98C78.9423 14.22 78.5663 14.552 78.2223 14.976V24H75.6423Z" fill="black"/>
<path fill-rule="evenodd" clip-rule="evenodd" d="M17.1246 2L7.38462 11.74L14.1013 18.4566L24 8.55791V22.5333C24 24.4479 22.4479 26 20.5333 26H3.46667C1.55208 26 0 24.4479 0 22.5333V5.46667C0 3.55208 1.55208 2 3.46667 2H17.1246Z" fill="#0865FF"/>
</svg>
